<?xml version="1.0" standalone="no"?>
<!DOCTYPE svg PUBLIC "-//W3C//DTD SVG 20010904//EN"
 "http://www.w3.org/TR/2001/REC-SVG-20010904/DTD/svg10.dtd">
<svg version="1.0" xmlns="http://www.w3.org/2000/svg"
 width="285.000000pt" height="135.000000pt" viewBox="0 0 285.000000 135.000000"
 preserveAspectRatio="xMidYMid meet">

<g transform="translate(0.000000,135.000000) scale(0.100000,-0.100000)"
fill="#000000" stroke="none">
<path d="M613 1090 c-13 -5 -23 -14 -23 -19 0 -5 -24 -22 -52 -38 -92 -49
-109 -125 -39 -166 28 -16 28 -16 23 8 -4 24 30 85 49 85 5 0 9 -124 9 -306
l0 -307 -41 7 c-38 6 -40 5 -37 -16 2 -15 15 -28 36 -37 23 -11 32 -21 32 -39
0 -21 3 -23 28 -17 15 3 40 13 56 21 16 8 46 14 66 14 86 0 180 55 211 124 41
90 14 192 -58 226 -18 8 -33 17 -33 20 0 3 21 16 47 30 61 32 110 96 119 156
20 132 -74 220 -248 231 -54 4 -86 11 -91 19 -9 16 -22 17 -54 4z m215 -129
c60 -31 76 -60 73 -135 -2 -43 -92 -128 -160 -151 -82 -27 -81 -28 -81 148 0
85 3 157 8 161 13 14 117 -1 160 -23z m-79 -352 c127 -27 149 -161 40 -241
-27 -20 -97 -40 -111 -32 -4 3 -8 68 -8 145 0 156 -6 146 79 128z"/>
<path d="M1768 1034 l-28 -15 0 -253 c0 -139 3 -288 7 -330 l6 -77 36 3 36 3
-3 76 -4 75 35 27 c20 15 40 27 46 27 20 0 41 -46 50 -112 18 -129 67 -172
157 -138 l26 10 -32 23 c-50 34 -71 68 -86 143 -10 50 -21 75 -40 92 l-25 22
35 43 c39 48 70 113 61 127 -17 28 -81 -3 -95 -45 -13 -40 -54 -94 -99 -131
l-34 -28 7 174 c3 96 9 203 12 238 6 60 6 62 -17 62 -13 -1 -36 -8 -51 -16z"/>
<path d="M2140 920 c-38 -38 -19 -100 31 -100 60 0 106 85 60 110 -31 16 -69
12 -91 -10z m73 -27 c8 -7 -31 -53 -45 -53 -13 0 -9 22 9 42 17 19 26 22 36
11z"/>
<path d="M1116 749 c-50 -40 -79 -104 -84 -190 -4 -66 -1 -85 18 -124 40 -82
109 -105 184 -62 58 33 86 92 86 182 0 138 -59 234 -123 200 -22 -11 -26 -11
-31 1 -7 19 -19 18 -50 -7z m124 -74 c20 -52 22 -122 6 -177 -28 -98 -86 -124
-123 -55 -23 44 -22 159 2 212 16 35 19 37 22 17 l4 -23 20 26 c26 32 57 32
69 0z"/>
<path d="M1453 738 c-50 -52 -73 -112 -73 -196 0 -86 24 -142 73 -172 40 -25
70 -25 125 0 35 16 47 29 67 72 36 77 35 175 -2 248 -36 69 -59 85 -95 66 -23
-12 -27 -12 -32 0 -9 23 -30 16 -63 -18z m135 -65 c32 -84 19 -194 -29 -247
-27 -30 -29 -30 -56 -16 -38 21 -56 78 -49 155 6 66 23 125 37 125 5 0 9 -10
9 -21 0 -21 1 -20 21 5 27 34 54 33 67 -1z"/>
<path d="M2150 749 l-25 -9 3 -187 c2 -104 7 -192 11 -196 4 -4 19 -4 32 2 25
9 25 13 38 173 6 89 14 178 18 196 5 30 4 32 -23 31 -16 0 -40 -5 -54 -10z"/>
</g>
</svg>
